# Blender 4.2.2 LTS
# www.blender.org
mtllib Frame.mtl
o Frame
v -1.070711 -0.100000 1.070711
v -1.070711 0.100000 1.070711
v -0.929289 0.100000 0.929289
v -0.929289 -0.100000 0.929289
v -1.070711 -0.100000 -1.070711
v -1.070711 0.100000 -1.070711
v -0.929289 0.100000 -0.929289
v -0.929289 -0.100000 -0.929289
v 1.070711 -0.100000 -1.070711
v 1.070711 0.100000 -1.070711
v 0.929289 0.100000 -0.929289
v 0.929289 -0.100000 -0.929289
v 1.070711 -0.100000 1.070711
v 1.070711 0.100000 1.070711
v 0.929289 0.100000 0.929289
v 0.929289 -0.100000 0.929289
vn -0.0000 -1.0000 -0.0000
vn -0.0000 -0.0000 1.0000
vn 1.0000 -0.0000 -0.0000
vn -1.0000 -0.0000 -0.0000
vn -0.0000 1.0000 -0.0000
vn -0.0000 -0.0000 -1.0000
vt 0.466980 0.466980
vt 0.466980 0.033020
vt 0.500000 0.000000
vt 0.500000 0.500000
vt 0.546698 0.500000
vt 0.546698 0.000000
vt 0.593396 0.000000
vt 0.593396 0.500000
vt 0.593396 0.433959
vt 0.593396 0.000000
vt 0.640094 0.000000
vt 0.640094 0.433959
vt 0.593396 0.867918
vt 0.593396 0.433959
vt 0.640094 0.433959
vt 0.640094 0.867918
vt 0.546698 0.000000
vt 0.546698 0.500000
vt 0.500000 0.500000
vt 0.500000 0.000000
vt 0.500000 1.000000
vt 0.000000 1.000000
vt 0.033020 0.966980
vt 0.466980 0.966980
vt 0.686792 0.000000
vt 0.686792 0.433959
vt 0.640094 0.433959
vt 0.640094 0.000000
vt 0.033020 0.033020
vt 0.033020 0.466980
vt 0.000000 0.500000
vt 0.000000 0.000000
vt 0.546698 0.500000
vt 0.546698 1.000000
vt 0.500000 1.000000
vt 0.500000 0.500000
vt 0.500000 0.500000
vt 0.466980 0.533020
vt 0.640094 0.867918
vt 0.686792 0.867918
vt 0.000000 0.500000
vt 0.033020 0.533020
vt 0.593396 0.500000
vt 0.593396 1.000000
vt 0.546698 1.000000
vt 0.546698 0.500000
s 0
f 12/1/1 8/2/1 5/3/1 9/4/1
f 1/5/2 13/6/2 14/7/2 2/8/2
f 7/9/3 3/10/3 4/11/3 8/12/3
f 11/13/2 7/14/2 8/15/2 12/16/2
f 5/17/4 1/18/4 2/19/4 6/20/4
f 6/21/5 2/22/5 3/23/5 7/24/5
f 15/25/4 11/26/4 12/27/4 16/28/4
f 4/29/1 16/30/1 13/31/1 1/32/1
f 9/33/6 5/34/6 6/35/6 10/36/6
f 10/37/5 6/21/5 7/24/5 11/38/5
f 3/39/6 15/27/6 16/26/6 4/40/6
f 8/2/1 4/29/1 1/32/1 5/3/1
f 16/30/1 12/1/1 9/4/1 13/31/1
f 14/41/5 10/37/5 11/38/5 15/42/5
f 13/43/3 9/44/3 10/45/3 14/46/3
f 2/22/5 14/41/5 15/42/5 3/23/5
