# Blender 4.2.2 LTS
# www.blender.org
o Hole_Lv1
v 1.500007 0.000000 -2.500002
v -1.499993 0.000000 -2.500000
v -1.499992 0.000000 -1.500000
v -2.499992 0.000000 -1.500000
v 0.500008 0.000000 -1.500002
v -0.499992 0.000000 -1.500000
v 2.500008 0.000000 -0.500002
v 1.500008 0.000000 -0.500002
v 2.500008 0.000000 -1.500002
v -0.499992 0.000000 -0.500000
v -1.499992 0.000000 -0.500000
v 0.500008 0.000000 -0.500002
v -2.499992 0.000000 -0.500000
v 1.500008 0.000000 0.499998
v 0.500008 0.000000 0.499998
v 2.500008 0.000000 0.499998
v -2.499992 0.000000 0.500000
v -0.499992 0.000000 0.500000
v -1.499992 0.000000 0.500000
v -1.499991 0.000000 1.500000
v -2.499991 0.000000 1.500000
v 0.500009 0.000000 1.499998
v -0.499991 0.000000 1.500000
v 0.500009 0.000000 2.499998
v -0.499991 0.000000 2.500000
v -0.499993 0.000000 -2.500000
v 0.500007 0.000000 -2.500002
v 1.500008 0.000000 -1.500002
v 2.500009 0.000000 1.499998
v 1.500009 0.000000 1.499998
v 1.500009 0.000000 2.499998
v -1.499991 0.000000 2.500000
vn -0.0000 1.0000 -0.0000
vt 0.000000 0.750000
vt 0.250000 0.750000
vt 0.250000 1.000000
vt 0.000000 1.000000
s 0
f 27/1/1 5/2/1 28/3/1 1/4/1
f 2/1/1 3/2/1 6/3/1 26/4/1
f 26/1/1 6/2/1 5/3/1 27/4/1
f 4/1/1 13/2/1 11/3/1 3/4/1
f 28/1/1 8/2/1 7/3/1 9/4/1
f 6/1/1 10/2/1 12/3/1 5/4/1
f 3/1/1 11/2/1 10/3/1 6/4/1
f 5/1/1 12/2/1 8/3/1 28/4/1
f 13/1/1 17/2/1 19/3/1 11/4/1
f 11/1/1 19/2/1 18/3/1 10/4/1
f 12/1/1 15/2/1 14/3/1 8/4/1
f 10/1/1 18/2/1 15/3/1 12/4/1
f 8/1/1 14/2/1 16/3/1 7/4/1
f 19/1/1 20/2/1 23/3/1 18/4/1
f 18/1/1 23/2/1 22/3/1 15/4/1
f 14/1/1 30/2/1 29/3/1 16/4/1
f 15/1/1 22/2/1 30/3/1 14/4/1
f 19/1/1 17/2/1 21/3/1 20/4/1
f 23/1/1 25/2/1 24/3/1 22/4/1
f 22/1/1 24/2/1 31/3/1 30/4/1
f 23/1/1 20/2/1 32/3/1 25/4/1
